HIERARCHY
ROOT root
{
	OFFSET 0.000000 0.000000 0.000000
	CHANNELS 6 Xposition Yposition Zposition Zrotation Yrotation Xrotation
	JOINT lhip
	{
		OFFSET 0.058581 -0.082280 -0.017664
		CHANNELS 3 Zrotation Yrotation Xrotation
		JOINT lknee
		{
			OFFSET 0.043451 -0.386469 0.008037
			CHANNELS 3 Zrotation Yrotation Xrotation
			JOINT lankle
			{
				OFFSET -0.014790 -0.426874 -0.037428
				CHANNELS 3 Zrotation Yrotation Xrotation
				JOINT ltoe
				{
					OFFSET 0.041054 -0.060286 0.122042
					CHANNELS 3 Zrotation Yrotation Xrotation
					End Site
					{
						OFFSET 0.000000 0.000000 0.000000
					}
				}
			}
		}
	}
	JOINT rhip
	{
		OFFSET -0.060310 -0.090513 -0.013543
		CHANNELS 3 Zrotation Yrotation Xrotation
		JOINT rknee
		{
			OFFSET -0.043257 -0.383688 -0.004843
			CHANNELS 3 Zrotation Yrotation Xrotation
			JOINT rankle
			{
				OFFSET 0.019056 -0.420046 -0.034562
				CHANNELS 3 Zrotation Yrotation Xrotation
				JOINT rtoe
				{
					OFFSET -0.034840 -0.062106 0.130323
					CHANNELS 3 Zrotation Yrotation Xrotation
					End Site
					{
						OFFSET 0.000000 0.000000 0.000000
					}
				}
			}
		}
	}
	JOINT lowerback
	{
		OFFSET 0.004439 0.124404 -0.038385
		CHANNELS 3 Zrotation Yrotation Xrotation
		JOINT upperback
		{
			OFFSET 0.004488 0.137956 0.026820
			CHANNELS 3 Zrotation Yrotation Xrotation
			JOINT chest
			{
				OFFSET -0.002265 0.056032 0.002855
				CHANNELS 3 Zrotation Yrotation Xrotation
				JOINT lowerneck
				{
					OFFSET -0.013390 0.211636 -0.033468
					CHANNELS 3 Zrotation Yrotation Xrotation
					JOINT upperneck
					{
						OFFSET 0.010113 0.088937 0.050410
						CHANNELS 3 Zrotation Yrotation Xrotation
						End Site
						{
							OFFSET 0.000000 0.000000 0.000000
						}
					}
				}
				JOINT lclavicle
				{
					OFFSET 0.071702 0.114000 -0.018898
					CHANNELS 3 Zrotation Yrotation Xrotation
					JOINT lshoulder
					{
						OFFSET 0.122921 0.045205 -0.019046
						CHANNELS 3 Zrotation Yrotation Xrotation
						JOINT lelbow
						{
							OFFSET 0.255332 -0.015649 -0.022946
							CHANNELS 3 Zrotation Yrotation Xrotation
							JOINT lwrist
							{
								OFFSET 0.265709 0.012698 -0.007375
								CHANNELS 3 Zrotation Yrotation Xrotation
								End Site
								{
									OFFSET 0.000000 0.000000 0.000000
								}
							}
						}
					}
				}
				JOINT rclavicle
				{
					OFFSET -0.082954 0.112472 -0.023707
					CHANNELS 3 Zrotation Yrotation Xrotation
					JOINT rshoulder
					{
						OFFSET -0.113228 0.046853 -0.008472
						CHANNELS 3 Zrotation Yrotation Xrotation
						JOINT relbow
						{
							OFFSET -0.260127 -0.014369 -0.031269
							CHANNELS 3 Zrotation Yrotation Xrotation
							JOINT rwrist
							{
								OFFSET -0.269108 0.006794 -0.006027
								CHANNELS 3 Zrotation Yrotation Xrotation
								End Site
								{
									OFFSET 0.000000 0.000000 0.000000
								}
							}
						}
					}
				}
			}
		}
	}
}
MOTION
Frames: 11
Frame Time: 0.033333
0.597722 0.169938 0.996791 94.095584 -2.527902 91.344007 0.791284 0.245017 -1.392584 -3.407496 -7.719520 8.293324 3.382810 7.714500 -13.878992 0.000000 -0.000000 0.000000 -1.499335 -3.861732 -6.405410 0.735497 -6.460845 15.533920 1.830652 -9.691171 -11.703070 0.000000 -0.000000 0.000000 2.409412 -1.736460 7.206814 0.487879 -2.653028 -2.362502 -1.681425 -1.570099 2.403187 -0.369036 4.050623 -4.261797 -3.405398 -1.628899 7.321151 -25.201050 7.968300 1.674131 -57.410786 -6.860642 11.103596 3.586817 -37.084602 15.323133 -5.439083 -2.732255 -3.153861 28.167851 -3.600798 -1.294548 57.145341 4.369502 9.006253 -15.823327 12.053283 -10.959340 8.916984 2.083351 -7.171580 
0.603102 0.169524 0.996421 94.578067 -2.632836 91.654708 0.773479 0.200944 -1.348846 -3.354769 -8.196972 8.123800 3.404702 7.545564 -13.868607 0.000000 -0.000000 0.000000 -1.547345 -4.248401 -5.986359 0.835149 -6.628077 14.917661 1.834685 -9.885731 -11.933735 0.000000 -0.000000 0.000000 2.557899 -1.957967 7.290716 0.541592 -2.831870 -2.920645 -1.617572 -1.794946 2.256328 -0.403647 4.028309 -3.824224 -3.420288 -1.239031 7.663278 -25.143326 8.489795 1.641277 -57.408939 -6.803006 11.125451 2.678340 -37.178258 16.522107 -5.546322 -2.771206 -3.091084 27.563292 -4.840044 -1.211561 57.288230 2.566594 8.986897 -14.978195 11.567231 -9.638315 9.110358 1.895414 -6.818659 
0.606971 0.168832 0.996020 95.152448 -2.736813 91.896189 0.923003 -0.022100 -1.533086 -3.591851 -8.465847 8.298984 3.336088 7.316849 -14.138615 0.000000 -0.000000 0.000000 -1.501964 -4.573864 -5.734851 0.803409 -6.724928 14.551900 1.942302 -10.199961 -12.092471 0.000000 -0.000000 0.000000 2.655908 -1.976720 7.110879 0.594151 -3.078761 -2.974433 -1.582725 -2.072208 2.417250 -0.517544 3.753459 -3.610794 -3.213962 -0.908844 7.685917 -25.165965 8.575624 1.610680 -57.503187 -7.011723 11.080701 2.575448 -37.386108 16.616479 -5.163101 -2.742335 -3.250925 27.265251 -5.669688 -1.148822 57.190883 0.964118 8.797700 -14.360109 11.016405 -8.710912 9.196851 1.734546 -6.834078 
0.610522 0.168137 0.996089 95.631185 -2.923946 92.200488 0.909738 -0.141163 -1.596759 -3.706808 -8.981732 8.046547 3.128534 7.266877 -14.086403 0.000000 -0.000000 0.000000 -1.537580 -4.732553 -5.678060 0.764038 -6.779798 14.274567 2.050824 -10.573084 -12.247222 0.000000 -0.000000 0.000000 2.748115 -2.077897 7.052792 0.587872 -3.214257 -3.112426 -1.622292 -2.303368 2.608643 -0.585659 3.749953 -3.770135 -2.908066 -0.866004 7.567404 -25.324566 8.805211 1.746574 -57.205602 -7.256834 10.984924 2.377753 -37.987837 16.591502 -4.828463 -2.851459 -3.493364 26.945791 -6.584141 -1.228619 56.908334 -0.731965 8.816338 -13.601267 10.722330 -7.900307 9.441569 1.501853 -6.625080 
0.614261 0.167239 0.995958 95.626889 -3.049474 92.545032 0.915977 -0.069315 -1.421502 -3.712199 -9.253273 7.384488 3.155126 7.228513 -13.900218 0.000000 -0.000000 0.000000 -1.534332 -4.796400 -5.717691 0.795319 -6.629289 14.025634 1.932260 -10.786270 -12.412374 0.000000 -0.000000 0.000000 2.897022 -2.073993 6.838404 0.525528 -3.215744 -3.238797 -1.672584 -2.513518 2.706097 -0.560727 3.631432 -3.601994 -2.557486 -0.636288 7.205643 -25.306254 9.283475 1.619477 -57.080567 -7.261640 10.882272 2.127291 -38.513503 16.662757 -4.781183 -2.820987 -3.821064 26.464206 -7.388109 -1.053960 57.090582 -2.302075 8.524104 -13.460698 10.249243 -7.617569 9.803104 1.382677 -6.650665 
0.616224 0.166184 0.996235 95.870700 -3.190580 92.835806 0.919686 -0.114125 -1.703066 -3.717750 -9.537242 7.458803 3.131811 6.897986 -13.707860 0.000000 -0.000000 0.000000 -1.451796 -4.752106 -5.917919 0.660673 -6.687353 14.022874 1.961764 -11.158826 -12.641664 0.000000 -0.000000 0.000000 3.001102 -2.190884 7.525617 0.462499 -3.260609 -3.907707 -1.743600 -2.634249 2.693556 -0.404472 3.558450 -4.080559 -2.180507 -0.501111 7.401072 -25.180914 9.857361 1.429663 -56.884178 -7.292264 10.724784 1.605338 -39.236160 17.263936 -4.582638 -2.814993 -3.846032 26.017134 -8.495466 -1.287397 57.118694 -3.891162 8.417469 -13.143691 10.017386 -6.903982 10.072885 1.329427 -6.413394 
0.619299 0.165334 0.995913 95.980547 -3.310890 92.988057 0.957880 -0.114458 -1.678635 -3.815270 -9.740090 7.397563 2.900207 6.761592 -13.689838 0.000000 -0.000000 0.000000 -1.478760 -5.074096 -5.766526 0.700320 -6.563388 13.813264 1.856135 -11.180450 -12.790419 0.000000 -0.000000 0.000000 3.075114 -2.208381 7.170987 0.437586 -3.510050 -3.497219 -1.727564 -2.748142 2.928707 -0.544791 3.426767 -3.929656 -1.863846 -0.218466 6.827818 -25.066998 9.665197 1.610183 -56.757759 -7.344985 10.563658 1.661316 -39.428175 16.876247 -4.291497 -2.892120 -4.044337 25.431423 -8.901634 -1.082313 57.191714 -5.312028 8.072355 -12.793188 9.979550 -6.435928 10.320191 1.279327 -6.725532 
0.620251 0.164445 0.996266 95.843383 -3.409722 93.245099 0.960691 -0.285766 -1.904515 -3.928803 -9.760586 7.412690 2.704648 7.001591 -13.702684 0.000000 -0.000000 0.000000 -1.453234 -4.882027 -5.893155 0.705472 -6.394515 13.618022 1.831344 -11.549876 -12.777903 0.000000 -0.000000 0.000000 3.332244 -2.304088 7.269097 0.263966 -3.571857 -3.617021 -1.892235 -2.943818 3.055573 -0.517121 3.351527 -3.683706 -1.466431 0.175081 6.405409 -24.901723 9.802873 1.637371 -56.431452 -7.455075 10.391628 1.319284 -39.458598 17.131117 -4.194526 -2.846748 -4.298087 24.502114 -9.540801 -1.059951 57.303531 -6.545742 7.988764 -11.808770 10.033905 -5.634883 10.656280 1.094024 -6.873571 
0.622304 0.163427 0.996231 95.484427 -3.526739 93.421262 0.982818 -0.051728 -1.992847 -4.013246 -9.881148 7.568847 2.755571 6.862943 -13.675090 0.000000 -0.000000 0.000000 -1.484034 -4.981667 -5.971997 0.726936 -6.111980 13.613415 1.859409 -11.501754 -12.919687 0.000000 -0.000000 0.000000 3.331827 -2.347490 7.589780 0.204651 -3.573975 -3.990419 -1.945522 -3.241165 2.992204 -0.437684 3.402854 -3.655853 -1.309426 0.375297 6.552414 -24.761280 10.201024 1.537475 -56.200623 -7.247063 10.174424 0.950841 -39.394265 17.496541 -4.186983 -3.020850 -4.136641 23.977120 -10.237351 -0.998518 57.207098 -7.680801 7.882512 -11.605061 9.961193 -5.247312 10.837833 1.155261 -6.677057 
0.623600 0.162666 0.996119 95.141541 -3.533987 93.402987 1.066860 0.036605 -1.842506 -4.053362 -9.821732 7.519710 2.640174 6.994018 -13.815554 0.000000 -0.000000 0.000000 -1.417286 -5.081151 -5.872693 0.703751 -6.036647 13.624180 1.865984 -11.225929 -13.063302 0.000000 -0.000000 0.000000 3.312558 -2.384353 7.658926 0.141695 -3.682755 -3.680589 -1.943254 -3.095126 3.016789 -0.453323 3.084846 -3.451822 -0.961043 0.383789 6.521437 -24.820811 9.924797 1.497799 -55.822910 -7.364584 10.017010 0.861347 -38.974186 17.295930 -4.072165 -2.954062 -3.775313 23.690518 -10.975162 -1.551188 56.869831 -8.682056 7.407289 -11.251051 9.851149 -4.832876 11.155192 1.172787 -6.662563 
0.623968 0.161846 0.995744 94.549793 -3.541390 93.389321 1.139357 -0.170506 -1.773037 -4.183289 -9.525108 7.593849 2.539441 7.463423 -13.737062 0.000000 -0.000000 0.000000 -1.472315 -4.932914 -6.001043 0.862482 -5.701892 13.875289 1.887947 -11.220357 -13.010922 0.000000 -0.000000 0.000000 3.323255 -2.420722 7.063822 0.060642 -3.845078 -2.938739 -2.150612 -3.117160 3.557409 -0.375834 3.065106 -3.179106 -0.641023 0.722413 6.139251 -24.897948 9.675860 1.647554 -55.526945 -7.753234 9.847790 1.411698 -38.659407 16.298393 -3.906833 -2.745353 -3.713594 23.350578 -10.939547 -1.365199 57.026510 -8.811248 7.307402 -11.375755 9.645847 -4.816284 11.277609 0.907832 -6.863712 
